<svg xmlns="http://www.w3.org/2000/svg" xmlns:xlink="http://www.w3.org/1999/xlink" aria-hidden="true" style="position: absolute; width: 0; height: 0; overflow: hidden;" version="1.1">
    <defs>
        <symbol id="icon-mydiaries" viewBox="0 0 24 24">
            <title>
                mydiaries
            </title>
            <path d="M22.8,12.2c0.7,0,1.2-0.5,1.2-1.2V5.7c0-0.7-0.5-1.2-1.2-1.2h-19C3.1,4.5,2.6,5,2.6,5.7v4.7H1.2c-0.7,0-1.2,0.5-1.2,1.2v5.3 c0,0.7,0.5,1.2,1.2,1.2h1.4v4.7c0,0.7,0.5,1.2,1.2,1.2h19c0.7,0,1.2-0.5,1.2-1.2v-5.3c0-0.7-0.5-1.2-1.2-1.2h-1.4v-4H22.8z M4.5,6.4 h17.6v4h-1.9H4.5V6.4z M22.1,22.1H4.5v-4h15.7h1.9V22.1z M19.5,16.2H3.8H1.9v-4h1.9h15.7V16.2z"/>
        </symbol>
        <symbol id="icon-followed" viewBox="0 0 24 24">
            <title>
                followed
            </title>
            <path d="M22.8,7l-0.2-0.1c-0.1,0.5-0.3,1-0.6,1.5c-0.3,0.5-0.8,1-1.3,1.3c-0.2-0.2-0.4-0.4-0.7-0.6c0.3-0.3,0.6-0.7,0.8-1.1c0.3-0.5,0.5-1,0.6-1.6L20,5.7c-0.1,0.4-0.2,0.8-0.4,1.2c-0.3,0.5-0.6,0.8-1,1.1c-0.3-0.2-0.7-0.5-1-0.7C17.8,7,18,6.7,18.2,6.4C18.4,6,18.6,5.5,18.7,5l-1.4-0.7c-0.1,0.4-0.2,0.7-0.4,1c-0.2,0.4-0.5,0.8-0.8,1c-1.5-0.7-3.2-1.2-4.9-1.2c-3.5,0-8.3,2-11,11.7L0,17.6L0.4,18c0.9,0.9,5.2,3.6,9.9,3.6c3.7,0,8.7-1.8,11.3-10.1l0.1-0.4c0.6-0.4,1.1-0.9,1.5-1.6c0.4-0.6,0.7-1.3,0.8-2L22.8,7zM14.3,8c0.4,0.8,0.7,1.7,0.7,2.7c0,0.2,0,0.4,0,0.6c-0.4,0.3-0.9,0.4-1.4,0.4c-1.6,0-2.9-1.6-2.9-3.6c0-0.3,0-0.6,0.1-0.9c0.1,0,0.2,0,0.3,0c1,0,2,0.2,2.9,0.5L14.3,8z M10.3,19.8c-3.7,0-7.2-1.9-8.5-2.9c0.9-3.1,2.1-5.5,3.6-7.1c-0.1,0.6-0.1,1.1-0.1,1.7c0,0.1,0,0.1,0,0.2c0.1,2.5,1.4,4.7,3,5.7c0.8,0.5,1.7,0.8,2.6,0.8c0.1,0,0.2,0,0.4,0c1.8-0.2,3.4-1.4,4.3-3.2l0,0c0-0.1,0.1-0.1,0.1-0.2v-0.1c0-0.1,0.1-0.1,0.1-0.2c0,0,0-0.1,0.1-0.1c0-0.1,0-0.1,0.1-0.2v-0.1c0-0.1,0.1-0.2,0.1-0.3l0,0c0.3-1,0.5-2.1,0.4-3.3c0-0.7-0.2-1.4-0.3-2c1.7,0.9,3,2.1,3.7,2.9C18.1,17,14.9,19.8,10.3,19.8z"/>
        </symbol>
        <symbol id="icon-dashboard" viewBox="0 0 24 24">
            <title>
                dahshboard
            </title>
            <path d="M22.9,5H1.2C0.6,5,0,5.6,0,6.2v16.5C0,23.4,0.6,24,1.2,24h21.6c0.7,0,1.2-0.6,1.2-1.2V6.2C24.1,5.6,23.5,5,22.9,5z M22.3,22.2H1.8v-9.4h20.5C22.3,12.8,22.3,22.2,22.3,22.2z M22.3,7.9H12v1.8h10.2v1.1H1.8v-4h20.5C22.3,6.8,22.3,7.9,22.3,7.9z M4.2,14.5h15.8v1.8H4.2 M4.2,18.2h15.8V20H4.2"/>
        </symbol>
        <symbol id="icon-search" viewBox="0 0 24 24">
            <title>
                search
            </title>
            <path d="M9.6,16.1c2.7,0,4.8-2.2,4.8-4.8s-2.2-4.8-4.8-4.8s-4.7,2.2-4.7,4.9S7,16.1,9.6,16.1z M16,16.1l5.3,5.3L19.7,23l-5.3-5.3v-0.8l-0.3-0.3c-1.2,1.1-2.8,1.7-4.5,1.7c-3.8,0-6.9-3-6.9-6.8s3.1-6.9,6.9-6.9s6.9,3.1,6.9,6.9c0,1.7-0.6,3.3-1.7,4.5l0.3,0.3C15.1,16.1,16,16.1,16,16.1z"/>
        </symbol>
        <symbol id="icon-pen" viewBox="0 0 24 24">
            <title>
                edit
            </title>
            <path d="M20.719 7.031l-1.828 1.828-3.75-3.75 1.828-1.828c0.375-0.375 1.031-0.375 1.406 0l2.344 2.344c0.375 0.375 0.375 1.031 0 1.406zM3 17.25l11.063-11.063 3.75 3.75-11.063 11.063h-3.75v-3.75z"/>
        </symbol>
        <symbol id="icon-burger" viewBox="0 0 24 24">
            <title>
                burger
            </title>
            <path d="M3 18h18v-2H3v2zm0-5h18v-2H3v2zm0-7v2h18V6H3z"/>
        </symbol>
    </defs>
</svg>
